<?xml version="1.0" standalone="no"?>
<!DOCTYPE svg PUBLIC "-//W3C//DTD SVG 1.1//EN" "http://www.w3.org/Graphics/SVG/1.1/DTD/svg11.dtd" >
<svg xmlns="http://www.w3.org/2000/svg">
<metadata>Generated by IcoMoon</metadata>
<defs>
<font id="laRucheFont" horiz-adv-x="1024">
<font-face units-per-em="1024" ascent="960" descent="-64" />
<missing-glyph horiz-adv-x="1024" />
<glyph unicode="&#x20;" horiz-adv-x="512" d="" />
<glyph unicode="&#xe900;" glyph-name="facebook" d="M532.685 492.646c21.094 0 41.984 0 63.283 0-1.024-19.661-1.843-39.322-2.867-59.187-20.070 0-40.141 0-60.416 0 0-53.862 0-107.93 0-161.792-20.89 0-41.574 0-62.259 0 0 53.862 0 107.725 0 161.587-14.336 0-28.467 0-42.803 0 0 19.866 0 39.322 0 59.187 14.336 0 28.467 0 42.803 0 0 0.614 0 1.229 0 1.638 0 16.589-0.205 33.382 0 50.176 0.41 17.408 5.53 33.178 16.998 46.694 9.83 11.674 22.528 18.432 37.069 22.528 11.469 3.277 23.142 3.891 35.021 3.686 11.674-0.205 22.938-0.819 34.406-2.048 0.41 0 1.024-0.205 1.638-0.205-0.41-18.227-1.024-36.659-1.434-55.091-0.614 0-1.229 0-1.638 0-11.674 0-23.757 0.205-35.43 0.205-3.072 0-6.144-0.205-9.011-0.614-8.806-1.434-13.517-6.554-14.541-15.36-0.41-2.458-0.41-5.12-0.41-7.782 0-14.131 0-28.262 0-42.394-0.41-0.614-0.41-0.819-0.41-1.229zM512-33.69c-26.214 0-52.224 6.758-75.571 20.275l-288.563 166.502c-46.694 26.829-75.571 77.005-75.571 130.867v333.21c0 53.862 28.877 104.038 75.571 130.867l288.563 166.707c46.694 26.829 104.448 26.829 151.142 0l288.563-166.707c46.694-26.829 75.571-77.005 75.571-130.867v-333.21c0-53.862-28.877-104.038-75.571-130.867l-288.563-166.707c-23.347-13.312-49.357-20.070-75.571-20.070zM512 908.186c-21.504 0-43.008-5.53-62.259-16.589l-288.563-166.502c-38.298-22.118-62.259-63.488-62.259-107.725v-333.21c0-44.237 23.757-85.606 62.259-107.725l288.563-166.707c38.298-22.118 86.016-22.118 124.518 0l288.563 166.707c38.298 22.118 62.259 63.488 62.259 107.725v333.005c0 44.237-23.757 85.606-62.259 107.725l-288.563 166.707c-19.251 11.059-40.755 16.589-62.259 16.589z" />
<glyph unicode="&#xe901;" glyph-name="more" d="M514.56 228.864c-0.512 0-0.512 0 0 0-9.728 0-18.432 3.584-23.552 9.728l-163.84 194.56-179.2 211.456c-4.608 5.632-4.096 13.312 1.536 17.92s13.312 4.096 17.92-1.536l178.688-210.944 163.84-194.56c1.536-1.024 7.168-1.024 8.704 0l163.84 194.56 178.176 210.944c4.608 5.632 12.8 6.144 17.92 1.536 5.632-4.608 6.144-12.8 1.536-17.92l-178.176-210.944-163.84-194.56c-5.12-6.144-13.824-10.24-23.552-10.24z" />
<glyph unicode="&#xe902;" glyph-name="picto-logo" horiz-adv-x="1203" d="M702.080 480h-193.92c-8.32 0-14.72 6.4-14.72 14.72s6.4 14.72 14.72 14.72h193.92c8.32 0 14.72-6.4 14.72-14.72s-6.4-14.72-14.72-14.72zM702.080 421.76h-193.92c-8.32 0-14.72 6.4-14.72 14.72s6.4 14.72 14.72 14.72h193.92c8.32 0 14.72-6.4 14.72-14.72 0-7.68-6.4-14.72-14.72-14.72zM547.84 607.36c-19.2 0-34.56 15.36-34.56 34.56s15.36 34.56 34.56 34.56 34.56-15.36 34.56-34.56c0-19.2-15.36-34.56-34.56-34.56zM547.84 653.44c-6.4 0-11.52-5.12-11.52-11.52s5.12-11.52 11.52-11.52 11.52 5.12 11.52 11.52-5.12 11.52-11.52 11.52zM663.040 607.36c-19.2 0-34.56 15.36-34.56 34.56s15.36 34.56 34.56 34.56c19.2 0 34.56-15.36 34.56-34.56s-15.36-34.56-34.56-34.56zM663.040 653.44c-6.4 0-11.52-5.12-11.52-11.52s5.12-11.52 11.52-11.52 11.52 5.12 11.52 11.52-5.12 11.52-11.52 11.52zM561.92 250.88h-106.88c-90.24 0-163.84 73.6-163.84 163.84v128.64c0 12.8 10.24 23.040 23.040 23.040s23.040-10.24 23.040-23.040v-128.64c0-64.64 52.48-117.12 117.12-117.12h106.88c64.64 0 117.12 52.48 117.12 117.12v128.64c0 12.8 10.24 23.040 23.040 23.040s23.040-10.24 23.040-23.040v-128.64c1.28-90.24-72.32-163.84-162.56-163.84zM577.92 316.16c-8.32-1.92-17.28-3.2-26.88-3.2h-38.4c-22.4 28.16-35.84 63.36-35.84 101.76v128.64c0 12.8 10.24 23.040 23.040 23.040s23.040-10.24 23.040-23.040v-128.64c1.28-40.96 23.040-78.080 55.040-98.56zM912 543.36v-128.64c0-90.24-73.6-163.84-163.84-163.84h-106.88c-1.28 0-2.56 0-3.84 0 23.040 10.88 43.52 26.88 58.88 46.080h51.84c64.64 0 117.12 52.48 117.12 117.12v129.28c0 12.8 10.24 23.040 23.040 23.040 13.44 0.64 23.68-10.24 23.68-23.040z" />
<glyph unicode="&#xe903;" glyph-name="website" d="M512.512 782.654c-2.56 0-4.096-1.024-5.632-1.536l-412.16-326.144c-4.608-3.072-5.632-11.264-2.048-15.36 3.584-4.608 11.264-5.12 15.36-1.536l405.504 320 405.504-320c4.608-3.584 11.776-3.072 15.36 1.536s3.072 12.8-1.536 15.36l-412.672 325.632c-2.56 2.048-5.632 2.048-7.68 2.048zM231.424 510.27l-21.504-16.896v-372.736c0-6.144 4.608-10.752 10.752-10.752h206.336c6.144 0 10.752 4.608 10.752 10.752v206.336h152.064v-206.336c0-6.144 4.608-10.752 10.752-10.752h206.336c6.144 0 10.752 4.608 10.752 10.752v372.736l-21.504 16.896v-378.88h-184.32v206.336c0 6.144-4.608 10.752-10.752 10.752h-174.080c-6.144 0-10.752-4.608-10.752-10.752v-206.336h-184.32v378.88z" />
<glyph unicode="&#xe904;" glyph-name="adresse" d="M511.488 827.71c-96.768 0-175.616-75.264-175.616-173.568 0-23.040 6.144-55.296 13.824-75.776 51.2-106.496 102.4-212.992 153.6-319.488 3.072-6.144 13.824-6.144 16.896 0 50.688 106.496 103.424 212.48 153.6 319.488 7.68 20.48 13.824 52.736 13.824 75.776 0 111.616-90.112 173.568-176.128 173.568zM511.488 809.278c87.552 0 157.696-66.56 157.696-155.136 0-19.456-6.144-51.2-12.288-68.608-50.176-104.96-101.888-211.456-144.896-301.568-47.616 100.864-97.792 200.192-144.896 301.568-6.656 17.408-12.288 49.152-12.288 68.608-0.512 88.576 69.632 155.136 156.672 155.136zM512 744.254c-51.2 0-92.672-41.472-92.672-92.672s41.472-92.672 92.672-92.672c51.2 0 92.672 41.472 92.672 92.672s-41.472 92.672-92.672 92.672zM512 725.822c40.96 0 74.24-33.28 74.24-74.24s-33.28-74.24-74.24-74.24c-40.96 0-74.24 33.28-74.24 74.24 0 41.472 33.28 74.24 74.24 74.24zM169.472 457.022c-6.144 0-9.216-4.608-9.216-9.216v-370.688c0-4.608 4.608-9.216 9.216-9.216h685.568c4.608 0 9.216 4.608 9.216 9.216v370.688c0 4.608-4.608 9.216-9.216 9.216h-218.112l-9.216-18.432h218.112v-92.672h-249.344l-8.192 10.24-9.216-18.432 200.704-251.392h-300.544l-123.392 154.112 96.256 81.408-8.192 17.408-99.84-84.48-145.92 182.784h198.656l-9.216 18.432h-218.112zM178.688 433.47l276.992-346.624h-276.992v346.624zM610.816 327.486h234.496v-111.104h-145.408l-89.088 111.104zM714.752 197.95h131.072v-111.104h-41.984l-89.088 111.104z" />
<glyph unicode="&#xe905;" glyph-name="negative" d="M863.744 435.2h-703.488c-7.168 0-12.8 5.632-12.8 12.8s5.632 12.8 12.8 12.8h703.488c7.168 0 12.8-5.632 12.8-12.8s-5.632-12.8-12.8-12.8z" />
<glyph unicode="&#xe906;" glyph-name="pig" d="M256 802.11c0.512 0 1.024 0 1.536-0.512 1.024 0 2.048-0.512 2.56-1.024l135.168-67.584c36.864 9.728 75.776 14.848 116.736 14.848 178.176 0 328.704-99.84 365.568-235.52 36.864 1.024 72.704 27.136 72.704 74.752 0 6.144 4.608 10.752 10.24 11.264 0.512 0 1.024 0 1.536 0 5.632-0.512 9.728-5.632 9.216-11.264 0-56.832-44.032-92.672-89.6-95.744 2.56-14.336 4.096-28.16 4.096-43.008 0-90.112-50.688-170.496-128.512-224.768v-160.256c0-6.144-4.608-10.752-10.752-10.752h-139.264c-5.12 0-9.216 3.072-10.24 8.192l-26.624 92.672c-19.456-2.56-38.912-4.608-59.392-4.608-19.968 0-39.936 2.048-59.392 4.608l-26.624-92.672c-1.024-4.608-5.632-8.192-10.24-8.192h-138.24c-6.144 0-10.752 4.608-10.752 10.752v160.256c-43.52 30.72-78.848 69.12-101.376 113.152l-104.448 26.624c-4.608 1.024-8.192 5.632-8.192 10.24v139.264c0 5.12 3.072 9.216 8.192 10.24l98.816 24.576c20.992 48.64 57.344 90.624 103.936 123.904l-17.92 117.76c-1.024 5.632 3.072 11.264 8.704 12.288 1.024 0.512 1.536 0.512 2.56 0.512v0zM268.8 772.414l15.872-103.424c0.512-4.096-1.024-8.192-4.608-10.24-47.616-32.768-83.968-75.776-103.936-123.904-1.536-3.072-4.096-5.632-7.168-6.144l-95.744-24.064v-122.368l100.864-25.6c3.072-0.512 5.632-3.072 7.168-5.632 20.992-44.032 56.32-83.456 101.376-113.664 3.072-2.048 4.608-5.632 4.608-9.216v-154.112h120.32l26.624 93.696c1.536 5.12 6.656 8.704 12.288 7.68 21.504-3.072 43.008-5.12 65.536-5.12s44.032 2.048 65.536 5.12c5.632 1.024 10.752-2.56 12.288-7.68l26.624-93.696h120.32v154.112c0 3.584 1.536 7.168 4.608 9.216 76.288 51.2 123.904 126.976 123.904 211.456 0 152.064-156.672 278.016-352.768 278.016-40.448 0-79.36-5.12-115.712-14.848-2.56-0.512-5.12-0.512-7.168 0.512l-120.832 59.904zM512 673.598c47.616 0 92.672-8.704 132.608-24.576 5.632-1.536 8.704-7.68 7.168-13.312s-7.68-8.704-13.312-7.168c-0.512 0-1.536 0.512-2.048 1.024-36.864 14.848-79.36 23.040-124.416 23.040-29.184 0-56.832-3.584-82.944-10.24-5.632-1.536-11.776 2.048-12.8 7.68-1.536 5.632 2.048 11.776 7.68 12.8 27.648 6.656 57.344 10.752 88.064 10.752zM297.984 545.086c17.92 0 32.256-14.336 32.256-32.256s-14.336-32.256-32.256-32.256c-17.92 0-32.256 14.336-32.256 32.256s14.848 32.256 32.256 32.256z" />
<glyph unicode="&#xe907;" glyph-name="postive" d="M512 83.456c-7.168 0-12.8 5.632-12.8 12.8v703.488c0 7.168 5.632 12.8 12.8 12.8s12.8-5.632 12.8-12.8v-703.488c0-7.168-5.632-12.8-12.8-12.8zM863.744 435.2h-703.488c-7.168 0-12.8 5.632-12.8 12.8s5.632 12.8 12.8 12.8h703.488c7.168 0 12.8-5.632 12.8-12.8s-5.632-12.8-12.8-12.8z" />
<glyph unicode="&#xe908;" glyph-name="scroll" horiz-adv-x="664" d="M544.299 664.523c0 114.841-93.308 206.953-206.953 206.953h-9.57c-114.841 0-208.15-93.308-208.15-206.953v-175.85c0-114.841 93.308-206.953 206.953-206.953h9.57c114.841 0 206.953 93.308 206.953 206.953v175.85zM509.607 487.477c0-47.85-19.14-90.916-50.243-122.019s-74.168-50.243-122.019-50.243h-9.57c-47.85 0-90.916 19.14-122.019 50.243s-50.243 74.168-50.243 122.019v177.047c0 47.85 19.14 90.916 50.243 122.019s74.168 50.243 122.019 50.243h9.57c47.85 0 90.916-19.14 122.019-50.243s50.243-74.168 50.243-122.019v-177.047zM331.364 696.822c-9.57 0-17.944-8.374-17.944-17.944v-51.439c0-9.57 8.374-17.944 17.944-17.944s17.944 8.374 17.944 17.944v51.439c0 9.57-8.374 17.944-17.944 17.944zM320.598 41.271c5.981-4.785 15.551-4.785 21.533 0l87.327 69.383c7.178 5.981 8.374 16.748 2.393 23.925s-16.748 8.374-23.925 2.393v0l-76.561-61.009-76.561 61.009c-7.178 5.981-17.944 4.785-23.925-2.393s-4.785-17.944 2.393-23.925l87.327-69.383z" />
<glyph unicode="&#xe909;" glyph-name="search" horiz-adv-x="1076" d="M794.71 772.727c-159.662 160.863-421.365 160.863-582.227 0s-160.863-422.565 0-582.227c154.86-154.86 403.358-160.863 565.421-16.807l168.066-168.066c9.604-9.604 24.009-9.604 33.613 0s9.604 24.009 0 33.613l-168.066 168.066c144.056 162.063 139.254 410.56-16.807 565.421zM761.097 224.113c-141.655-141.655-373.346-141.655-515.001 0s-141.655 373.346 0 515.001 373.346 141.655 515.001 0 141.655-373.346 0-515.001z" />
<glyph unicode="&#xe90a;" d="M512 112.128c-185.344 0-335.872 150.528-335.872 335.872 0 88.064 33.792 171.52 95.744 234.496 5.12 5.12 12.8 5.12 17.92 0s5.12-12.8 0-17.92c-56.832-58.368-88.064-135.168-88.064-216.576 0-171.008 139.264-310.272 310.272-310.272s310.272 139.264 310.272 310.272-139.264 310.272-310.272 310.272c-7.168 0-12.8 5.632-12.8 12.8s5.632 12.8 12.8 12.8c185.344 0 335.872-150.528 335.872-335.872s-150.528-335.872-335.872-335.872z" />
<glyph unicode="&#xe90b;" d="M321.024 664.576c0-23.187-18.797-41.984-41.984-41.984s-41.984 18.797-41.984 41.984c0 23.187 18.797 41.984 41.984 41.984s41.984-18.797 41.984-41.984z" />
<glyph unicode="&#xe90c;" d="M279.040 617.472c-26.112 0-47.104 20.992-47.104 47.104s20.992 47.104 47.104 47.104 47.104-20.992 47.104-47.104c0-26.112-20.992-47.104-47.104-47.104zM279.040 701.44c-20.48 0-36.864-16.384-36.864-36.864s16.384-36.864 36.864-36.864 36.864 16.384 36.864 36.864c0 20.48-16.384 36.864-36.864 36.864z" />
<glyph unicode="&#xe90d;" glyph-name="twitter" d="M327.475 331.674c40.755-3.891 77.414 6.349 109.978 31.334-15.974 1.024-30.31 5.939-43.008 15.565-12.493 9.421-21.504 21.709-26.419 36.454 5.53 0 11.059-0.205 16.384 0.205 5.325 0.205 10.65 1.229 15.974 2.253-21.709 5.939-38.707 18.227-49.766 37.888-6.758 11.878-10.445 27.238-9.421 37.274 5.325-2.048 10.445-4.301 15.974-5.939 5.325-1.434 11.059-2.253 16.589-2.867-33.382 28.058-40.755 61.645-22.528 101.786 41.574-48.742 93.389-75.571 157.082-79.667-0.614 4.915-1.229 9.216-1.229 13.517-1.229 23.552 6.963 43.622 24.371 59.597 19.046 17.613 41.779 23.347 66.97 18.637 14.541-2.867 27.238-9.421 37.683-20.275 1.638-1.638 2.867-2.048 5.12-1.434 14.131 3.277 27.853 7.987 40.55 15.155 1.229 0.819 2.662 1.229 4.71 2.253-5.939-17.613-16.589-30.925-31.334-40.96 14.336 1.229 27.648 5.325 41.37 11.059-6.963-10.445-14.541-19.251-23.347-27.443-3.686-3.277-7.578-6.554-11.469-9.421-2.048-1.638-2.867-3.277-2.867-5.939 0.819-21.709-2.048-43.213-7.987-64.102-5.12-17.818-12.083-35.021-21.299-50.995-10.035-17.408-21.914-33.382-36.25-47.514-19.251-19.251-41.779-33.997-66.97-44.237-23.757-9.626-48.538-14.541-74.342-15.565-18.022-0.614-36.045 0.614-53.658 4.301-17.818 3.891-35.021 9.421-51.2 17.818-6.758 3.482-13.312 7.168-20.070 10.65 0.205 0.205 0.41 0.205 0.41 0.614zM512-39.834c-26.214 0-52.224 6.758-75.571 20.275l-288.563 166.502c-46.694 26.829-75.571 77.005-75.571 130.867v333.21c0 53.862 28.877 104.038 75.571 130.867l288.563 166.707c46.694 26.829 104.448 26.829 151.142 0l288.563-166.707c46.694-26.829 75.571-77.005 75.571-130.867v-333.21c0-53.862-28.877-104.038-75.571-130.867l-288.563-166.707c-23.347-13.312-49.357-20.070-75.571-20.070zM512 902.042c-21.504 0-43.008-5.53-62.259-16.589l-288.563-166.502c-38.298-22.118-62.259-63.488-62.259-107.725v-333.21c0-44.237 23.757-85.606 62.259-107.725l288.563-166.707c38.298-22.118 86.016-22.118 124.518 0l288.563 166.707c38.298 22.118 62.259 63.488 62.259 107.725v333.005c0 44.237-23.757 85.606-62.259 107.725l-288.563 166.707c-19.251 11.059-40.755 16.589-62.259 16.589z" />
<glyph unicode="&#xe90e;" glyph-name="people" d="M511.488 950.943c-277.248 0-502.272-225.024-502.272-502.272s225.024-502.272 502.272-502.272 502.272 224.768 502.272 502.272c0 277.248-225.024 502.272-502.272 502.272zM511.488 927.391c264.704 0 478.976-214.272 478.976-478.976 0-136.448-56.832-259.328-148.224-346.368-33.792 151.808-168.704 264.704-330.752 264.704s-296.96-112.896-330.752-264.704c-91.392 87.296-148.224 210.176-148.224 346.368 0 264.704 214.272 478.976 478.976 478.976v0zM511.488 845.727c-97.536 0-175.104-89.856-175.104-198.656s77.568-198.656 175.104-198.656 175.104 89.856 175.104 198.656-77.568 198.656-175.104 198.656zM511.488 822.431c83.2 0 151.808-77.568 151.808-175.104s-68.864-175.104-151.808-175.104-151.808 77.568-151.808 175.104 68.608 175.104 151.808 175.104zM511.488 343.455c155.904 0 284.16-111.872 310.272-259.84-83.456-71.168-192-113.92-310.272-113.92s-226.816 42.752-310.272 113.92c26.112 147.968 154.368 259.84 310.272 259.84z" />
<glyph unicode="&#xe90f;" glyph-name="bubble" d="M615.424 370.944h-385.792c-126.464 0-229.376 102.912-229.376 229.376s102.912 229.376 229.376 229.376h562.432c126.464 0 229.376-102.912 229.376-229.376 0-59.392-22.784-115.712-64.256-158.72-41.216-43.008-96.512-67.84-155.648-70.4l-0.512 10.24c56.32 2.304 109.056 26.368 148.736 67.328 39.68 41.216 61.44 94.976 61.44 151.808 0 120.832-98.304 219.136-219.136 219.136h-562.432c-120.832 0-219.136-98.304-219.136-219.136s98.304-219.136 219.136-219.136h385.792v-10.496zM308.736 543.488c-30.208 0-54.528 24.576-54.528 54.528 0 30.208 24.576 54.528 54.528 54.528s54.528-24.576 54.528-54.528c0-29.952-24.576-54.528-54.528-54.528zM308.736 645.12c-25.856 0-46.848-20.992-46.848-46.848s20.992-46.848 46.848-46.848 46.848 20.992 46.848 46.848c0 25.6-20.992 46.848-46.848 46.848zM513.28 543.488c-30.208 0-54.528 24.576-54.528 54.528 0 30.208 24.576 54.528 54.528 54.528 30.208 0 54.528-24.576 54.528-54.528 0.256-29.952-24.32-54.528-54.528-54.528zM513.28 645.12c-25.856 0-46.848-20.992-46.848-46.848s20.992-46.848 46.848-46.848c25.856 0 46.848 20.992 46.848 46.848 0.256 25.6-20.992 46.848-46.848 46.848zM718.080 543.488c-30.208 0-54.528 24.576-54.528 54.528 0 30.208 24.576 54.528 54.528 54.528 30.208 0 54.528-24.576 54.528-54.528s-24.576-54.528-54.528-54.528zM718.080 645.12c-25.856 0-46.848-20.992-46.848-46.848s20.992-46.848 46.848-46.848c25.856 0 46.848 20.992 46.848 46.848 0 25.6-20.992 46.848-46.848 46.848zM806.912 187.136c-1.28 0-2.56 0.512-3.584 1.28l-192.768 183.296c-2.048 2.048 1.792 1.28 3.84 3.328-1.792 2.048 1.024 6.144 1.024 6.144l186.368-177.152-0.256 166.912c0 2.816 2.56 5.376 5.376 5.376s5.12-0.512 5.12-3.328v-180.992c0-2.048-1.28-3.84-3.072-4.608-0.768-0.256-1.28-0.256-2.048-0.256z" />
<glyph unicode="&#xe910;" glyph-name="1" d="M590.336 855.808l-184.576-67.072c-11.52-3.84-22.272-3.328-32.768 1.536-11.008 5.12-18.176 13.312-22.016 24.32-4.352 11.008-3.84 21.76 1.536 32.768 4.864 10.496 12.8 17.92 24.32 22.016l242.176 87.552c13.824 5.12 26.88 3.584 39.168-4.864 11.776-8.448 17.92-20.224 17.92-34.816v-938.496c0-11.776-4.096-21.76-12.032-29.952-8.448-8.448-18.688-12.8-30.72-12.8-11.776 0-21.76 4.352-29.952 12.8-8.448 8.192-12.8 18.176-12.8 29.952v877.056z" />
<glyph unicode="&#xe911;" glyph-name="2" d="M799.488-21.248c0-11.776-4.096-21.76-12.032-29.952-8.448-8.448-18.432-12.8-29.952-12.8h-472.32c-17.152 0-29.696 7.68-37.888 22.784-7.68 15.104-6.656 29.952 2.816 44.288l420.096 610.304c9.984 23.296 14.848 47.872 14.848 73.472 0 51.712-18.176 96-54.784 132.608s-80.896 54.784-132.608 54.784-96-18.176-132.608-54.784c-36.608-36.608-54.784-80.896-54.784-132.608 0-3.84 0-7.936 0-12.032 1.024-11.776-2.56-22.272-10.752-31.488-7.68-8.448-17.408-13.312-29.184-14.336-11.52-0.512-21.504 3.072-30.72 10.752-8.96 7.68-13.824 17.408-14.336 29.184-0.512 6.144-0.768 12.032-0.768 17.92 0 75.008 26.624 139.52 79.872 193.28 53.76 53.248 118.272 79.872 193.28 79.872s139.52-26.624 193.28-79.872c53.248-53.76 79.872-118.016 79.872-193.28 0-38.912-7.936-76.032-23.552-111.36-1.536-2.304-2.816-4.864-4.352-7.168l-376.32-546.816h390.656c11.52 0 21.504-4.352 29.952-12.8 8.192-7.936 12.288-17.92 12.288-29.952z" />
<glyph unicode="&#xe912;" glyph-name="3" d="M790.016 214.016c0-76.544-27.136-142.080-81.408-196.864-54.272-54.272-119.552-81.408-196.096-81.408s-142.080 27.136-196.864 81.408c-54.272 54.784-81.408 120.32-81.408 196.864 0 11.52 4.352 21.504 12.8 29.952 8.192 8.448 18.176 12.8 29.952 12.8s21.76-4.352 29.952-12.8c8.448-8.448 12.8-18.432 12.8-29.952 0-53.248 18.688-98.56 56.32-136.192s82.944-56.32 136.192-56.32c52.736 0 98.048 18.688 136.192 56.32 37.632 37.632 56.32 82.944 56.32 136.192 0 52.736-18.688 98.048-56.32 136.192-38.144 37.632-83.456 56.32-136.192 56.32-15.616 0-27.904 6.4-36.352 19.2-8.192 13.312-8.96 27.136-2.816 41.472l188.16 407.296h-384c-11.776 0-21.76 4.352-29.952 12.8-8.448 8.192-12.8 18.176-12.8 29.952s4.352 22.016 12.8 30.72c8.192 8.192 18.176 12.032 29.952 12.032h450.56c15.616 0 27.648-6.4 35.584-19.2 8.448-13.312 9.472-27.136 2.816-41.472l-191.232-414.976c62.208-14.336 113.664-46.592 154.112-97.024s60.928-108.032 60.928-173.312z" />
<glyph unicode="&#xe913;" glyph-name="4" d="M693.504 232.192h-403.456c-17.152 0-29.696 7.68-37.888 22.784-7.68 15.36-6.656 29.952 2.816 44.288l445.696 641.792c12.032 17.152 27.904 22.528 47.872 16.384s29.952-19.712 29.952-40.704v-937.728c0-12.032-4.096-22.272-12.288-30.72-8.704-8.192-18.944-12.288-30.72-12.288-11.52 0-21.504 4.096-29.952 12.288-8.192 8.704-12.288 18.944-12.288 30.72v253.184zM693.504 317.184v462.848l-321.792-462.848h321.792z" />
<glyph unicode="&#xe914;" glyph-name="smiley" d="M567.552 956.928c-318.464 33.792-586.752-226.304-566.528-542.464 16.384-254.464 222.72-461.056 477.44-477.44 315.904-20.224 576.256 248.064 542.464 566.528-25.088 237.568-216.064 428.288-453.376 453.376zM542.72-18.944c-282.112-18.176-515.84 215.552-497.664 497.664 14.848 232.704 203.776 421.632 436.48 436.48 282.112 17.92 515.584-215.552 497.664-497.408-14.848-232.96-203.776-421.888-436.48-436.736zM769.28 347.904v0c13.056 0 23.552-11.264 22.016-24.32-14.080-121.344-134.144-216.576-279.296-216.576s-264.96 94.976-279.296 216.576c-1.536 12.8 8.96 24.32 22.016 24.32v0c11.264 0 20.48-8.448 21.76-19.712 12.032-99.328 112.896-177.152 235.52-177.152s223.744 77.824 235.52 177.152c1.28 11.264 10.496 19.712 21.76 19.712zM231.168 541.952v0c-14.848 0-25.344 14.592-20.992 28.672 12.288 41.216 50.688 71.424 96 71.424s83.456-30.208 96-71.424c4.352-14.336-6.144-28.672-20.992-28.672v0c-9.728 0-18.176 6.4-20.992 15.872-6.912 23.296-28.416 40.448-54.016 40.448s-47.104-17.152-54.016-40.448c-2.816-9.472-11.264-15.872-20.992-15.872zM792.832 541.952v0c-9.728 0-18.176 6.4-20.992 15.872-6.912 23.296-28.416 40.448-54.016 40.448s-47.104-17.152-54.016-40.448c-2.816-9.472-11.264-15.872-20.992-15.872v0c-14.848 0-25.344 14.592-20.992 28.672 12.288 41.216 50.688 71.424 96 71.424s83.456-30.208 96-71.424c4.352-14.080-6.144-28.672-20.992-28.672z" />
</font>
</defs>
</svg>
