<?xml version="1.0" encoding="utf-8"?>
<!-- Generator: Adobe Illustrator 21.0.2, SVG Export Plug-In . SVG Version: 6.00 Build 0)  -->
<svg version="1.1" id="Calque_1" xmlns="http://www.w3.org/2000/svg" xmlns:xlink="http://www.w3.org/1999/xlink" x="0px" y="0px"
	 viewBox="0 0 979.8 1080" style="enable-background:new 0 0 979.8 1080;" xml:space="preserve">
<style type="text/css">
	.st0{opacity:0.72;}
	.st1{fill:#E5B900;}
	.st2{opacity:0.72;fill:none;stroke:#E5B900;stroke-width:35.8974;stroke-miterlimit:10;enable-background:new    ;}
	.st3{opacity:0.72;fill:none;stroke:#E5B900;stroke-width:21.544;stroke-miterlimit:10;enable-background:new    ;}
</style>
<g class="st0">
	<path class="st1" d="M726.3,406.9V192.1c0-3.9-2.1-7.6-5.5-9.5l-186-107.3c-3.4-2-7.6-2-11,0L337.9,182.6c-3.4,2-5.5,5.6-5.5,9.5
		v214.7c0,3.9,2.1,7.6,5.5,9.5l185.9,107.4c3.4,2,7.6,2,11,0l185.9-107.4C724.2,414.4,726.3,410.8,726.3,406.9z"/>
</g>
<path class="st3" d="M777.3,492.8V283.4c0-3.9-2.1-7.6-5.5-9.5L590.5,169.2c-3.4-2-7.6-2-11,0L398.2,273.9c-3.4,2-5.5,5.6-5.5,9.5
	v209.4c0,3.9,2.1,7.6,5.5,9.5L579.5,607c3.4,2,7.6,2,11,0l181.3-104.7C775.2,500.3,777.3,496.7,777.3,492.8z"/>
<path class="st3" d="M546.4,874.9V665.5c0-3.9-2.1-7.6-5.5-9.5L359.6,551.3c-3.4-2-7.6-2-11,0L167.3,656c-3.4,2-5.5,5.6-5.5,9.5
	v209.4c0,3.9,2.1,7.6,5.5,9.5l181.3,104.7c3.4,2,7.6,2,11,0l181.3-104.7C544.3,882.4,546.4,878.8,546.4,874.9z"/>
</svg>
