<?xml version="1.0" encoding="utf-8"?>
<!-- Generator: Adobe Illustrator 21.0.2, SVG Export Plug-In . SVG Version: 6.00 Build 0)  -->
<svg version="1.1" id="Calque_1" xmlns="http://www.w3.org/2000/svg" xmlns:xlink="http://www.w3.org/1999/xlink" x="0px" y="0px"
	 viewBox="0 0 1059.1 1080" style="enable-background:new 0 0 1059.1 1080;" xml:space="preserve">
<style type="text/css">
	.st0{opacity:0.72;}
	.st1{fill:#E5B900;}
	.st2{opacity:0.72;fill:none;stroke:#E5B900;stroke-width:35.8974;stroke-miterlimit:10;enable-background:new    ;}
	.st3{opacity:0.72;fill:none;stroke:#E5B900;stroke-width:21.544;stroke-miterlimit:10;enable-background:new    ;}
</style>
<g class="st0">
	<path class="st1" d="M256.8,412.8V779c0,3.9,2.1,7.6,5.5,9.5l317.2,183.1c3.4,2,7.6,2,11,0l317.2-183.1c3.4-2,5.5-5.6,5.5-9.5
		V412.8c0-3.9-2.1-7.6-5.5-9.5L590.5,220.2c-3.4-2-7.6-2-11,0L262.3,403.3C258.9,405.3,256.8,408.9,256.8,412.8z"/>
</g>
<path class="st2" d="M171.8,269.7V627c0,3.9,2.1,7.6,5.5,9.5l309.5,178.7c3.4,2,7.6,2,11,0l309.4-178.7c3.4-2,5.5-5.6,5.5-9.5V269.7
	c0-3.9-2.1-7.6-5.5-9.5L497.7,81.5c-3.4-2-7.6-2-11,0L177.2,260.2C173.9,262.1,171.8,265.7,171.8,269.7z"/>
</svg>
