<?xml version="1.0" encoding="utf-8"?>
<!-- Generator: Adobe Illustrator 21.0.2, SVG Export Plug-In . SVG Version: 6.00 Build 0)  -->
<svg version="1.1" id="Calque_1" xmlns="http://www.w3.org/2000/svg" xmlns:xlink="http://www.w3.org/1999/xlink" x="0px" y="0px"
	 viewBox="0 0 525.1 546.8" style="enable-background:new 0 0 525.1 546.8;" xml:space="preserve">
<style type="text/css">
	.st0{opacity:0.45;fill:#E5B900;enable-background:new    ;}
	.st1{opacity:0.6;fill:none;stroke:#E5B900;stroke-width:21;stroke-miterlimit:10;enable-background:new    ;}
</style>
<path class="st0" d="M67,182.1v165.2c0,18.2,9.7,35.1,25.5,44.2l143.1,82.6c15.8,9.1,35.3,9.1,51.1,0l143.1-82.6
	c15.8-9.1,25.5-26,25.5-44.2V182.1c0-18.2-9.7-35.1-25.5-44.2L286.6,55.2c-15.8-9.1-35.3-9.1-51.1,0l-143,82.6
	C76.7,147,67,163.8,67,182.1z"/>
<path class="st1" d="M1017.7,141.6v165.2c0,18.2,9.7,35.1,25.5,44.2l143.1,82.6c15.8,9.1,35.3,9.1,51.1,0l143.1-82.6
	c15.8-9.1,25.5-26,25.5-44.2V141.6c0-18.2-9.7-35.1-25.5-44.2l-143.1-82.6c-15.8-9.1-35.3-9.1-51.1,0l-143.1,82.6
	C1027.5,106.5,1017.7,123.3,1017.7,141.6z"/>
</svg>
