<?xml version="1.0" encoding="utf-8"?>
<!-- Generator: Adobe Illustrator 21.0.2, SVG Export Plug-In . SVG Version: 6.00 Build 0)  -->
<svg version="1.1" xmlns="http://www.w3.org/2000/svg" xmlns:xlink="http://www.w3.org/1999/xlink" x="0px" y="0px"
	 viewBox="0 0 608 160" style="enable-background:new 0 0 608 160;" xml:space="preserve">
<style type="text/css">
	.st0{display:none;}
	.st1{display:inline;}
	.st2{fill:#E5B900;}
	.st3{fill:none;stroke:#000000;stroke-width:3.6684;stroke-linecap:round;stroke-miterlimit:10;}
	.st4{fill:#FFFFFF;}
	.st5{fill:none;stroke:#FFFFFF;stroke-width:3.6684;stroke-linecap:round;stroke-miterlimit:10;}
</style>
<g id="Calque_2" class="st0">
	<rect x="-36" y="-114.4" class="st1" width="696" height="417"/>
</g>
<g id="Calque_1">
	<path class="st4" d="M116.4,75H86.1c-1.3,0-2.3-1-2.3-2.3c0-1.3,1-2.3,2.3-2.3h30.3c1.3,0,2.3,1,2.3,2.3
		C118.7,74,117.7,75,116.4,75z"/>
	<path class="st4" d="M116.4,84.1H86.1c-1.3,0-2.3-1-2.3-2.3c0-1.3,1-2.3,2.3-2.3h30.3c1.3,0,2.3,1,2.3,2.3
		C118.7,83,117.7,84.1,116.4,84.1z"/>
	<g>
		<path class="st4" d="M361,90.2V64.6c0-1.9-1.8-3.4-4.1-3.4s-4.1,1.5-4.1,3.4v26.7c0,2.9,0.6,5.5,1.8,7.9c0.5,1.1,1.5,2.5,2.2,3.5
			c2.1-0.1,3.9-0.6,5.4-1.3c0.8-0.4,1.6-0.8,2.3-1.3c-1.2-1.4-2.3-3.4-2.8-5C361.2,93.3,361,91.7,361,90.2z"/>
		<path class="st4" d="M398.1,62.2c-0.7-0.6-1.8-1-2.9-1c-2.2,0-4.1,1.5-4.1,3.4v25.6c0,1.5-0.2,3.1-0.8,4.8
			c-0.5,1.7-1.4,3.2-2.5,4.6c-1.2,1.4-2.8,2.5-4.7,3.4c-1.3,0.6-3.9,1-5.6,1.2c-0.9,1.1-1.3,1.8-2.4,2.8c-1.5,1.2-3.4,2.4-5.2,3.2
			c1.6,0.3,4.3,0.5,6.1,0.5c3.3,0,6.3-0.5,9.2-1.4c2.8-0.9,5.3-2.3,7.4-4c2.1-1.7,3.7-3.8,4.9-6.1c1.2-2.4,1.8-5,1.8-7.9V64.6
			C399.3,63.6,398.9,62.8,398.1,62.2z"/>
	</g>
	<path class="st4" d="M337.6,61.2c2.2,0,4.1,1.5,4.1,3.4v25.6c0,1.5,0.3,3.1,0.8,4.8c0.5,1.7,1.4,3.2,2.5,4.6
		c1.2,1.4,2.7,2.5,4.7,3.4c1.9,0.9,4.3,1.3,7.1,1.3c2.8,0,5.2-0.4,7.1-1.3c1.9-0.9,3.5-2,4.7-3.4c1.2-1.4,2-2.9,2.5-4.6
		c0.5-1.7,0.8-3.3,0.8-4.8V64.6c0-1.9,1.8-3.4,4.1-3.4h0c2.2,0,4.1,1.5,4.1,3.4v26.7c0,2.9-0.6,5.5-1.8,7.9
		c-1.2,2.4-2.8,4.4-4.9,6.1c-2.1,1.7-4.6,3.1-7.4,4c-2.8,0.9-5.9,1.4-9.2,1.4c-3.3,0-6.3-0.5-9.2-1.4c-2.8-0.9-5.3-2.3-7.4-4
		c-2.1-1.7-3.7-3.8-4.9-6.1c-1.2-2.4-1.8-5-1.8-7.9V64.6C333.6,62.7,335.4,61.2,337.6,61.2L337.6,61.2z"/>
	<path class="st4" d="M174.7,61.2h10.9v39.5h20.2v10.1h-31.2V61.2z"/>
	<path class="st4" d="M234.1,61.2h9l21.6,49.6h-12.3l-4.3-10.5h-19.2l-4.1,10.5h-12L234.1,61.2z M238.3,75.6l-6,15.4h12.1
		L238.3,75.6z"/>
	<path class="st4" d="M288.4,61.2h19.2c2.5,0,4.9,0.2,7.2,0.7s4.2,1.3,6,2.5c1.7,1.1,3.1,2.7,4.1,4.6c1,1.9,1.5,4.4,1.5,7.2
		c0,3.5-0.9,6.5-2.7,8.9c-1.8,2.5-4.5,4-8,4.7l12.6,20.9h-13.1L304.7,91h-5.4v19.8h-10.9V61.2z M299.3,81.7h6.4c1,0,2,0,3.1-0.1
		c1.1-0.1,2.1-0.3,3-0.6c0.9-0.3,1.6-0.9,2.2-1.6c0.6-0.7,0.9-1.8,0.9-3.2c0-1.3-0.3-2.3-0.8-3c-0.5-0.7-1.2-1.3-2-1.7
		c-0.8-0.4-1.7-0.7-2.7-0.8c-1-0.1-2-0.2-3-0.2h-7.1V81.7z"/>
	<path class="st4" d="M441.7,74.1c-1.1-1.3-2.4-2.3-4-3c-1.6-0.7-3.4-1-5.4-1c-2.1,0-4,0.4-5.7,1.2c-1.8,0.8-3.3,1.9-4.5,3.3
		c-1.3,1.4-2.3,3.1-3,5.1S418,83.7,418,86c0,2.3,0.4,4.5,1.1,6.4c0.7,1.9,1.7,3.6,3,5c1.3,1.4,2.7,2.5,4.4,3.3
		c1.7,0.8,3.5,1.2,5.5,1.2c2.2,0,4.2-0.5,6-1.4c1.7-0.9,3.2-2.2,4.3-3.9l9.1,6.8c-2.1,2.9-4.8,5.1-8,6.5c-3.2,1.4-6.5,2.1-9.9,2.1
		c-3.9,0-7.4-0.6-10.7-1.8c-3.3-1.2-6.1-3-8.5-5.2c-2.4-2.3-4.2-5-5.6-8.2s-2-6.8-2-10.8c0-4,0.7-7.6,2-10.8c1.3-3.2,3.2-6,5.6-8.2
		c2.4-2.3,5.2-4,8.5-5.2c3.3-1.2,6.8-1.8,10.7-1.8c1.4,0,2.9,0.1,4.4,0.4c1.5,0.3,3,0.7,4.5,1.2c1.5,0.6,2.9,1.3,4.2,2.2
		c1.4,0.9,2.6,2.1,3.6,3.4L441.7,74.1z"/>
	<path class="st4" d="M457.3,61.2h10.9v18.5h21.2V61.2h10.9v49.6h-10.9V89.3h-21.2v21.4h-10.9V61.2z"/>
	<path class="st4" d="M510.8,61.2h33.7v10.1h-22.8v9.2h21.5v10.1h-21.5v10.1h24v10.1h-34.9V61.2z"/>
	<circle class="st5" cx="92.2" cy="49.7" r="3.6"/>
	<circle class="st5" cx="110.3" cy="49.7" r="3.6"/>
	<path class="st4" d="M94.5,110.8H77.8c-14.1,0-25.6-11.5-25.6-25.6V65.1c0-2,1.6-3.6,3.6-3.6c2,0,3.6,1.6,3.6,3.6v20.1
		c0,10.1,8.2,18.3,18.3,18.3h16.7c10.1,0,18.3-8.2,18.3-18.3V65.1c0-2,1.6-3.6,3.6-3.6s3.6,1.6,3.6,3.6v20.1
		C120.1,99.3,108.6,110.8,94.5,110.8z"/>
	<path class="st4" d="M97,100.6c-1.3,0.3-2.7,0.5-4.2,0.5h-6c-3.5-4.4-5.6-9.9-5.6-15.9V65.1c0-2,1.6-3.6,3.6-3.6
		c2,0,3.6,1.6,3.6,3.6v20.1C88.6,91.6,92,97.4,97,100.6z"/>
	<path class="st4" d="M149.2,65.1v20.1c0,14.1-11.5,25.6-25.6,25.6h-16.7c-0.2,0-0.4,0-0.6,0c3.6-1.7,6.8-4.2,9.2-7.2h8.1
		c10.1,0,18.3-8.2,18.3-18.3V65.1c0-2,1.6-3.6,3.6-3.6C147.5,61.4,149.2,63.1,149.2,65.1z"/>
</g>
</svg>
